<svg width="84" height="14" viewBox="0 0 84 14" fill="none" xmlns="http://www.w3.org/2000/svg">
<path d="M4.928 10.272C5.52533 10.2827 5.99467 10.208 6.336 10.048C6.688 9.87733 6.864 9.57333 6.864 9.136C6.864 9.008 6.832 8.88533 6.768 8.768C6.71467 8.65067 6.608 8.544 6.448 8.448C6.288 8.34133 6.06933 8.23467 5.792 8.128C5.52533 8.02133 5.184 7.90933 4.768 7.792C4.288 7.664 3.80267 7.50933 3.312 7.328C2.832 7.14667 2.39467 6.91733 2 6.64C1.616 6.36267 1.30133 6.02133 1.056 5.616C0.810667 5.21067 0.688 4.72 0.688 4.144C0.688 3.536 0.784 3.008 0.976 2.56C1.17867 2.10133 1.44533 1.72267 1.776 1.424C2.11733 1.11467 2.512 0.885332 2.96 0.735999C3.408 0.575999 3.888 0.490666 4.4 0.48C4.56 0.48 4.77867 0.48 5.056 0.48C5.33333 0.469333 5.62133 0.469333 5.92 0.48C6.22933 0.490666 6.52267 0.501333 6.8 0.511999C7.088 0.522666 7.31733 0.544 7.488 0.575999C7.82933 0.64 8.10667 0.8 8.32 1.056C8.544 1.312 8.64533 1.61067 8.624 1.952C8.624 2.09067 8.59733 2.24533 8.544 2.416C8.50133 2.576 8.42133 2.72533 8.304 2.864C8.19733 3.00267 8.05333 3.10933 7.872 3.184C7.70133 3.25867 7.48267 3.28 7.216 3.248C6.90667 3.20533 6.54933 3.17333 6.144 3.152C5.73867 3.12 5.296 3.11467 4.816 3.136C4.368 3.15733 4.02133 3.23733 3.776 3.376C3.53067 3.504 3.408 3.72267 3.408 4.032C3.408 4.34133 3.62133 4.59733 4.048 4.8C4.47467 5.00267 5.03467 5.19467 5.728 5.376C6.44267 5.568 7.04533 5.79733 7.536 6.064C8.02667 6.32 8.42133 6.61867 8.72 6.96C9.02933 7.29067 9.248 7.65333 9.376 8.048C9.51467 8.44267 9.584 8.864 9.584 9.312C9.584 10.0053 9.45067 10.592 9.184 11.072C8.928 11.552 8.576 11.936 8.128 12.224C7.68 12.512 7.15733 12.7147 6.56 12.832C5.97333 12.96 5.34933 13.008 4.688 12.976C4.12267 12.9547 3.568 12.8907 3.024 12.784C2.49067 12.688 2.032 12.5493 1.648 12.368C1.56267 12.3253 1.46133 12.2613 1.344 12.176C1.23733 12.1013 1.136 12 1.04 11.872C0.954667 11.7333 0.890667 11.5733 0.848 11.392C0.805333 11.2107 0.810667 11.0027 0.864 10.768C0.917333 10.544 1.008 10.3627 1.136 10.224C1.264 10.0747 1.408 9.96267 1.568 9.888C1.728 9.81333 1.88267 9.77067 2.032 9.76C2.192 9.74933 2.32533 9.77067 2.432 9.824C2.72 9.93067 3.07733 10.0267 3.504 10.112C3.94133 10.1973 4.416 10.2507 4.928 10.272ZM15.1029 12.976C14.4309 12.976 13.8069 12.864 13.2309 12.64C12.6655 12.416 12.1749 12.1013 11.7589 11.696C11.3535 11.28 11.0335 10.7893 10.7989 10.224C10.5749 9.65867 10.4629 9.03467 10.4629 8.352C10.4629 7.648 10.5802 7.008 10.8149 6.432C11.0602 5.84533 11.3909 5.34933 11.8069 4.944C12.2229 4.53867 12.7135 4.224 13.2789 4C13.8442 3.776 14.4522 3.664 15.1029 3.664C15.7642 3.664 16.3722 3.776 16.9269 4C17.4922 4.224 17.9829 4.53867 18.3989 4.944C18.8149 5.34933 19.1402 5.84533 19.3749 6.432C19.6095 7.008 19.7269 7.648 19.7269 8.352C19.7269 9.03467 19.6149 9.65867 19.3909 10.224C19.1775 10.7893 18.8682 11.28 18.4629 11.696C18.0575 12.1013 17.5722 12.416 17.0069 12.64C16.4415 12.864 15.8069 12.976 15.1029 12.976ZM15.1029 10.256C15.4122 10.256 15.6842 10.2027 15.9189 10.096C16.1535 9.97867 16.3455 9.83467 16.4949 9.664C16.6549 9.48267 16.7722 9.28 16.8469 9.056C16.9322 8.82133 16.9749 8.58667 16.9749 8.352C16.9749 7.776 16.8095 7.30667 16.4789 6.944C16.1589 6.57067 15.7002 6.384 15.1029 6.384C14.5055 6.384 14.0415 6.57067 13.7109 6.944C13.3802 7.31733 13.2149 7.78667 13.2149 8.352C13.2149 8.58667 13.2522 8.82133 13.3269 9.056C13.4122 9.28 13.5295 9.48267 13.6789 9.664C13.8389 9.83467 14.0362 9.97867 14.2709 10.096C14.5055 10.2027 14.7829 10.256 15.1029 10.256ZM23.6915 1.504C23.7555 1.96267 23.7982 2.50133 23.8195 3.12C23.8515 3.728 23.8728 4.368 23.8835 5.04C23.9048 5.70133 23.9102 6.37333 23.8995 7.056C23.8888 7.73867 23.8728 8.38933 23.8515 9.008C23.8408 9.616 23.8195 10.1707 23.7875 10.672C23.7662 11.1627 23.7395 11.5573 23.7075 11.856C23.6755 12.1867 23.5155 12.432 23.2275 12.592C22.9502 12.7627 22.6195 12.8373 22.2355 12.816C22.0648 12.8053 21.8995 12.768 21.7395 12.704C21.5902 12.64 21.4568 12.5547 21.3395 12.448C21.2328 12.3413 21.1475 12.2133 21.0835 12.064C21.0195 11.9253 20.9928 11.7707 21.0035 11.6C21.0355 11.1947 21.0622 10.7253 21.0835 10.192C21.1155 9.65867 21.1368 9.09333 21.1475 8.496C21.1582 7.89867 21.1635 7.29067 21.1635 6.672C21.1635 6.04267 21.1582 5.43467 21.1475 4.848C21.1368 4.26133 21.1208 3.712 21.0995 3.2C21.0782 2.688 21.0462 2.25067 21.0035 1.888C20.9608 1.51467 21.0675 1.22133 21.3235 1.008C21.5795 0.794666 21.8728 0.666666 22.2035 0.624C22.3635 0.602666 22.5288 0.607999 22.6995 0.639999C22.8702 0.672 23.0248 0.730666 23.1635 0.815999C23.3022 0.890666 23.4195 0.986666 23.5155 1.104C23.6115 1.22133 23.6702 1.35467 23.6915 1.504ZM28.6693 5.024C28.7013 6.06933 28.7226 7.136 28.7333 8.224C28.7439 9.30133 28.7226 10.4747 28.6693 11.744C28.6586 11.8933 28.6053 12.032 28.5093 12.16C28.4239 12.2987 28.3119 12.416 28.1733 12.512C28.0346 12.6187 27.8746 12.6987 27.6933 12.752C27.5226 12.8053 27.3519 12.8267 27.1813 12.816C26.8293 12.7947 26.5253 12.672 26.2693 12.448C26.0239 12.2347 25.9013 11.9627 25.9013 11.632C25.9226 11.0347 25.9333 10.464 25.9333 9.92C25.9439 9.376 25.9493 8.84267 25.9493 8.32C25.9493 7.78667 25.9439 7.25867 25.9333 6.736C25.9333 6.20267 25.9279 5.65333 25.9173 5.088C25.9173 4.768 26.0346 4.50667 26.2693 4.304C26.5146 4.10133 26.8079 3.984 27.1493 3.952C27.3306 3.93067 27.5119 3.94133 27.6933 3.984C27.8746 4.02667 28.0346 4.09067 28.1733 4.176C28.3226 4.26133 28.4399 4.37867 28.5253 4.528C28.6213 4.66667 28.6693 4.832 28.6693 5.024ZM28.6853 2.048C28.6746 2.24 28.6213 2.40533 28.5253 2.544C28.4399 2.68267 28.3279 2.8 28.1893 2.896C28.0506 2.98133 27.8906 3.04533 27.7093 3.088C27.5279 3.12 27.3413 3.13067 27.1493 3.12C26.7973 3.088 26.5093 2.98667 26.2853 2.816C26.0613 2.63467 25.9439 2.416 25.9333 2.16L25.9173 1.536C25.9066 1.36533 25.9439 1.216 26.0293 1.088C26.1146 0.949333 26.2213 0.837333 26.3493 0.752C26.4879 0.666666 26.6319 0.602666 26.7812 0.559999C26.9413 0.506666 27.0906 0.48 27.2293 0.48C27.5706 0.48 27.8906 0.554666 28.1893 0.704C28.4986 0.842666 28.6639 1.06133 28.6853 1.36V2.048ZM34.0849 10.4C34.5649 10.432 34.9329 10.416 35.1889 10.352C35.4449 10.288 35.5675 10.16 35.5569 9.968C35.5462 9.808 35.4182 9.68533 35.1729 9.6C34.9275 9.51467 34.5329 9.408 33.9889 9.28C33.6369 9.19467 33.2422 9.088 32.8049 8.96C32.3675 8.832 31.9622 8.656 31.5889 8.432C31.2155 8.208 30.9062 7.92533 30.6609 7.584C30.4262 7.24267 30.3195 6.82133 30.3409 6.32C30.3622 5.81867 30.4849 5.40267 30.7089 5.072C30.9329 4.74133 31.2209 4.47467 31.5729 4.272C31.9355 4.05867 32.3409 3.90933 32.7889 3.824C33.2369 3.728 33.7009 3.67467 34.1809 3.664C34.3302 3.664 34.5169 3.664 34.7409 3.664C34.9649 3.664 35.1995 3.66933 35.4449 3.68C35.6902 3.69067 35.9249 3.70667 36.1489 3.728C36.3729 3.73867 36.5489 3.75467 36.6769 3.776C36.7942 3.79733 36.9115 3.85067 37.0289 3.936C37.1462 4.01067 37.2529 4.112 37.3489 4.24C37.4449 4.368 37.5195 4.51733 37.5729 4.688C37.6369 4.848 37.6582 5.02933 37.6369 5.232C37.6262 5.40267 37.5835 5.55733 37.5089 5.696C37.4342 5.83467 37.3329 5.95733 37.2049 6.064C37.0875 6.16 36.9489 6.22933 36.7889 6.272C36.6395 6.31467 36.4795 6.32533 36.3089 6.304C36.2022 6.28267 36.0475 6.26667 35.8449 6.256C35.6422 6.23467 35.4342 6.21867 35.2209 6.208C35.0075 6.19733 34.8102 6.192 34.6289 6.192C34.4475 6.18133 34.3142 6.176 34.2289 6.176C33.7595 6.18667 33.4502 6.22933 33.3009 6.304C33.1622 6.368 33.0929 6.464 33.0929 6.592C33.0929 6.70933 33.2529 6.81067 33.5729 6.896C33.9035 6.98133 34.3249 7.088 34.8369 7.216C35.3275 7.33333 35.7809 7.46667 36.1969 7.616C36.6235 7.75467 36.9915 7.93067 37.3009 8.144C37.6102 8.34667 37.8555 8.59733 38.0369 8.896C38.2182 9.184 38.3142 9.536 38.3249 9.952C38.3355 10.5707 38.2022 11.0773 37.9249 11.472C37.6582 11.8667 37.3009 12.176 36.8529 12.4C36.4155 12.624 35.9249 12.7733 35.3809 12.848C34.8475 12.9333 34.3249 12.9653 33.8129 12.944C33.5889 12.9333 33.3435 12.912 33.0769 12.88C32.8209 12.848 32.5595 12.8 32.2929 12.736C32.0262 12.6827 31.7649 12.6133 31.5089 12.528C31.2635 12.4533 31.0502 12.3627 30.8689 12.256C30.7942 12.2133 30.7089 12.144 30.6129 12.048C30.5169 11.9627 30.4369 11.856 30.3729 11.728C30.3089 11.6 30.2662 11.4613 30.2449 11.312C30.2235 11.152 30.2395 10.9813 30.2929 10.8C30.3569 10.576 30.4582 10.4053 30.5969 10.288C30.7355 10.16 30.8849 10.0693 31.0449 10.016C31.2049 9.96267 31.3702 9.94133 31.5409 9.952C31.7115 9.952 31.8662 9.97333 32.0049 10.016C32.2609 10.1013 32.5809 10.1813 32.9649 10.256C33.3489 10.3307 33.7222 10.3787 34.0849 10.4ZM39.1816 8.336C39.1816 7.67467 39.2776 7.06133 39.4696 6.496C39.6616 5.92 39.9443 5.424 40.3176 5.008C40.7016 4.592 41.171 4.26667 41.7256 4.032C42.2803 3.78667 42.915 3.664 43.6296 3.664C44.163 3.664 44.6803 3.75467 45.1816 3.936C45.683 4.11733 46.1256 4.38933 46.5096 4.752C46.9043 5.104 47.2243 5.552 47.4696 6.096C47.715 6.62933 47.8483 7.25333 47.8696 7.968C47.8803 8.46933 47.7736 8.85867 47.5496 9.136C47.3256 9.40267 46.979 9.536 46.5096 9.536H43.5496C43.251 9.536 43.0323 9.424 42.8936 9.2C42.755 8.976 42.6856 8.71467 42.6856 8.416C42.6856 8.11733 42.7656 7.85067 42.9256 7.616C43.0856 7.37067 43.3043 7.248 43.5816 7.248H45.1016C45.1016 7.12 45.075 6.98133 45.0216 6.832C44.979 6.68267 44.9043 6.54933 44.7976 6.432C44.7016 6.304 44.563 6.20267 44.3816 6.128C44.2003 6.04267 43.971 6 43.6936 6C43.1496 6 42.723 6.18667 42.4136 6.56C42.1043 6.92267 41.9496 7.51467 41.9496 8.336C41.9496 9.12533 42.1096 9.70133 42.4296 10.064C42.7496 10.4267 43.203 10.624 43.7896 10.656C44.0776 10.6773 44.3816 10.6613 44.7016 10.608C45.0323 10.544 45.3523 10.4267 45.6616 10.256C45.8216 10.1813 45.987 10.1387 46.1576 10.128C46.3283 10.1173 46.4883 10.1387 46.6376 10.192C46.787 10.2453 46.915 10.336 47.0216 10.464C47.139 10.592 47.2243 10.752 47.2776 10.944C47.331 11.1253 47.3363 11.296 47.2936 11.456C47.251 11.6053 47.187 11.7387 47.1016 11.856C47.027 11.9733 46.9416 12.0693 46.8456 12.144C46.7496 12.2293 46.6696 12.288 46.6056 12.32C46.211 12.5547 45.7523 12.7307 45.2296 12.848C44.707 12.9653 44.1736 13.008 43.6296 12.976C42.8403 12.9333 42.163 12.7787 41.5976 12.512C41.0323 12.256 40.5683 11.92 40.2056 11.504C39.8536 11.088 39.5923 10.608 39.4216 10.064C39.2616 9.52 39.1816 8.944 39.1816 8.336ZM51.8805 7.984C51.8805 8.18667 51.8805 8.44267 51.8805 8.752C51.8805 9.06133 51.8805 9.38667 51.8805 9.728C51.8805 10.0693 51.8805 10.4053 51.8805 10.736C51.8912 11.0667 51.9018 11.36 51.9125 11.616C51.9125 11.776 51.8805 11.9253 51.8165 12.064C51.7525 12.2133 51.6618 12.3413 51.5445 12.448C51.4272 12.5653 51.2832 12.656 51.1125 12.72C50.9525 12.784 50.7712 12.816 50.5685 12.816C50.0885 12.816 49.7365 12.6933 49.5125 12.448C49.2992 12.2133 49.1818 11.9467 49.1605 11.648C49.1498 11.424 49.1392 11.1307 49.1285 10.768C49.1285 10.4053 49.1285 10.0213 49.1285 9.616C49.1285 9.21067 49.1285 8.816 49.1285 8.432C49.1392 8.03733 49.1445 7.712 49.1445 7.456C49.1445 6.912 49.2138 6.416 49.3525 5.968C49.5018 5.50933 49.7205 5.12 50.0085 4.8C50.2965 4.48 50.6538 4.23467 51.0805 4.064C51.5178 3.88267 52.0245 3.792 52.6005 3.792H54.2325C54.5525 3.792 54.8032 3.93067 54.9845 4.208C55.1765 4.48533 55.2725 4.81067 55.2725 5.184C55.2725 5.52533 55.1818 5.82933 55.0005 6.096C54.8298 6.36267 54.5685 6.496 54.2165 6.496H53.4645C53.0165 6.496 52.6378 6.608 52.3285 6.832C52.0298 7.04533 51.8805 7.42933 51.8805 7.984ZM59.638 5.024C59.67 6.06933 59.6913 7.136 59.702 8.224C59.7127 9.30133 59.6913 10.4747 59.638 11.744C59.6273 11.8933 59.574 12.032 59.478 12.16C59.3927 12.2987 59.2807 12.416 59.142 12.512C59.0033 12.6187 58.8433 12.6987 58.662 12.752C58.4913 12.8053 58.3207 12.8267 58.15 12.816C57.798 12.7947 57.494 12.672 57.238 12.448C56.9927 12.2347 56.87 11.9627 56.87 11.632C56.8913 11.0347 56.902 10.464 56.902 9.92C56.9127 9.376 56.918 8.84267 56.918 8.32C56.918 7.78667 56.9127 7.25867 56.902 6.736C56.902 6.20267 56.8967 5.65333 56.886 5.088C56.886 4.768 57.0033 4.50667 57.238 4.304C57.4833 4.10133 57.7767 3.984 58.118 3.952C58.2993 3.93067 58.4807 3.94133 58.662 3.984C58.8433 4.02667 59.0033 4.09067 59.142 4.176C59.2913 4.26133 59.4087 4.37867 59.494 4.528C59.59 4.66667 59.638 4.832 59.638 5.024ZM59.654 2.048C59.6433 2.24 59.59 2.40533 59.494 2.544C59.4087 2.68267 59.2967 2.8 59.158 2.896C59.0193 2.98133 58.8593 3.04533 58.678 3.088C58.4967 3.12 58.31 3.13067 58.118 3.12C57.766 3.088 57.478 2.98667 57.254 2.816C57.03 2.63467 56.9127 2.416 56.902 2.16L56.886 1.536C56.8753 1.36533 56.9127 1.216 56.998 1.088C57.0833 0.949333 57.19 0.837333 57.318 0.752C57.4567 0.666666 57.6007 0.602666 57.75 0.559999C57.91 0.506666 58.0593 0.48 58.198 0.48C58.5393 0.48 58.8593 0.554666 59.158 0.704C59.4673 0.842666 59.6327 1.06133 59.654 1.36V2.048ZM64.3176 8.624C64.3176 9.072 64.3816 9.42933 64.5096 9.696C64.6376 9.96267 64.8243 10.096 65.0696 10.096H65.3896C65.7096 10.096 65.9763 10.2293 66.1896 10.496C66.403 10.7627 66.5096 11.0827 66.5096 11.456C66.5096 11.8293 66.403 12.1387 66.1896 12.384C65.987 12.64 65.731 12.768 65.4216 12.768H64.9416C64.259 12.768 63.699 12.6613 63.2616 12.448C62.8243 12.2453 62.4776 11.9627 62.2216 11.6C61.9763 11.2373 61.8056 10.816 61.7096 10.336C61.6136 9.84533 61.5656 9.328 61.5656 8.784C61.5656 8.51733 61.5656 8.208 61.5656 7.856C61.5656 7.49333 61.5656 7.136 61.5656 6.784C61.5763 6.42133 61.5816 6.07467 61.5816 5.744C61.5923 5.41333 61.603 5.136 61.6136 4.912C61.6136 4.79467 61.635 4.66667 61.6776 4.528C61.7203 4.38933 61.7896 4.26133 61.8856 4.144C61.9923 4.02667 62.131 3.93067 62.3016 3.856C62.483 3.78133 62.7176 3.744 63.0056 3.744C63.251 3.744 63.459 3.78133 63.6296 3.856C63.8003 3.93067 63.939 4.02667 64.0456 4.144C64.163 4.26133 64.2483 4.39467 64.3016 4.544C64.355 4.68267 64.3816 4.816 64.3816 4.944C64.3816 5.2 64.3763 5.49867 64.3656 5.84C64.3656 6.18133 64.3603 6.52267 64.3496 6.864C64.339 7.20533 64.3283 7.536 64.3176 7.856C64.3176 8.16533 64.3176 8.42133 64.3176 8.624ZM66.9896 4.8C66.9896 4.71467 67.0163 4.61333 67.0696 4.496C67.123 4.368 67.203 4.25067 67.3096 4.144C67.4163 4.02667 67.555 3.93067 67.7256 3.856C67.8963 3.78133 68.099 3.744 68.3336 3.744C68.7816 3.744 69.123 3.87733 69.3576 4.144C69.5923 4.4 69.715 4.672 69.7256 4.96C69.7363 5.45067 69.747 5.98933 69.7576 6.576C69.7683 7.16267 69.7736 7.75467 69.7736 8.352C69.7736 8.94933 69.7683 9.53067 69.7576 10.096C69.7576 10.6613 69.747 11.1733 69.7256 11.632C69.7256 11.76 69.6936 11.8933 69.6296 12.032C69.5763 12.1707 69.491 12.2987 69.3736 12.416C69.267 12.5333 69.123 12.6293 68.9416 12.704C68.771 12.7787 68.5683 12.816 68.3336 12.816C67.907 12.816 67.571 12.6933 67.3256 12.448C67.091 12.2027 66.979 11.9253 66.9896 11.616C67.0003 11.1787 67.0056 10.6933 67.0056 10.16C67.0163 9.62667 67.0216 9.06667 67.0216 8.48C67.0216 7.88267 67.0163 7.27467 67.0056 6.656C67.0056 6.02667 67.0003 5.408 66.9896 4.8ZM74.0494 11.76C74.0494 11.8453 74.028 11.9467 73.9854 12.064C73.9427 12.192 73.868 12.3093 73.7614 12.416C73.6654 12.5333 73.5374 12.6293 73.3774 12.704C73.2174 12.7787 73.02 12.816 72.7854 12.816C72.3374 12.816 72.0067 12.688 71.7934 12.432C71.58 12.176 71.468 11.8987 71.4574 11.6C71.4467 11.0987 71.436 10.56 71.4254 9.984C71.4147 9.39733 71.4094 8.80533 71.4094 8.208C71.4094 7.61067 71.4147 7.02933 71.4254 6.464C71.436 5.89867 71.4467 5.38667 71.4574 4.928C71.4574 4.81067 71.484 4.68267 71.5374 4.544C71.5907 4.40533 71.6707 4.27733 71.7774 4.16C71.884 4.04267 72.0174 3.94667 72.1774 3.872C72.348 3.78667 72.5507 3.744 72.7854 3.744C73.212 3.744 73.532 3.86667 73.7454 4.112C73.9587 4.35733 74.06 4.63467 74.0494 4.944C74.0387 5.38133 74.028 5.872 74.0174 6.416C74.0067 6.94933 74.0014 7.50933 74.0014 8.096C74.0014 8.68267 74.0067 9.29067 74.0174 9.92C74.028 10.5387 74.0387 11.152 74.0494 11.76ZM80.5294 8.272C80.5294 7.55733 80.4014 7.008 80.1454 6.624C79.8894 6.24 79.4467 6.08533 78.8174 6.16C78.7107 6.18133 78.636 6.19733 78.5934 6.208C78.7107 6.67733 78.7694 7.14667 78.7694 7.616C78.7694 7.88267 78.764 8.208 78.7534 8.592C78.7534 8.96533 78.748 9.344 78.7374 9.728C78.7374 10.112 78.732 10.48 78.7214 10.832C78.7214 11.184 78.7214 11.4667 78.7214 11.68C78.7214 11.776 78.6947 11.888 78.6414 12.016C78.5987 12.144 78.524 12.2667 78.4174 12.384C78.3214 12.5013 78.188 12.6027 78.0174 12.688C77.8574 12.7733 77.6654 12.816 77.4414 12.816C77.196 12.816 76.988 12.7787 76.8174 12.704C76.6467 12.64 76.508 12.5493 76.4014 12.432C76.3054 12.3253 76.2307 12.2027 76.1774 12.064C76.1347 11.9253 76.1134 11.792 76.1134 11.664C76.1134 11.4187 76.1134 11.1147 76.1134 10.752C76.124 10.3893 76.1347 10.0213 76.1454 9.648C76.156 9.27467 76.1614 8.92267 76.1614 8.592C76.172 8.25067 76.1774 7.97867 76.1774 7.776C76.1774 7.264 76.1134 6.90667 75.9854 6.704C75.8574 6.50133 75.6654 6.37333 75.4094 6.32C75.1214 6.26667 74.8867 6.16 74.7054 6C74.524 5.84 74.4174 5.57867 74.3854 5.216C74.364 5.00267 74.38 4.816 74.4334 4.656C74.4974 4.48533 74.5827 4.34133 74.6894 4.224C74.796 4.096 74.9134 4 75.0414 3.936C75.1694 3.86133 75.2974 3.81867 75.4254 3.808C75.7987 3.78667 76.1454 3.81867 76.4654 3.904C76.7854 3.97867 77.068 4.10133 77.3134 4.272C77.612 4.12267 77.9267 4.00533 78.2574 3.92C78.588 3.83467 78.8654 3.792 79.0894 3.792C79.8254 3.792 80.4494 3.91467 80.9614 4.16C81.4734 4.40533 81.8894 4.736 82.2094 5.152C82.5294 5.55733 82.7587 6.02133 82.8974 6.544C83.0467 7.056 83.1214 7.584 83.1214 8.128C83.1214 8.384 83.1214 8.66667 83.1214 8.976C83.1214 9.28533 83.116 9.59467 83.1054 9.904C83.1054 10.2133 83.1 10.512 83.0894 10.8C83.0894 11.088 83.084 11.3387 83.0734 11.552C83.0734 11.6587 83.052 11.7867 83.0094 11.936C82.9667 12.0853 82.8974 12.224 82.8014 12.352C82.7054 12.4907 82.572 12.6027 82.4014 12.688C82.2414 12.784 82.028 12.832 81.7614 12.832C81.5267 12.832 81.324 12.7947 81.1534 12.72C80.9827 12.656 80.844 12.5653 80.7374 12.448C80.6414 12.3413 80.572 12.2187 80.5294 12.08C80.4867 11.952 80.4654 11.824 80.4654 11.696C80.476 11.408 80.4814 11.1093 80.4814 10.8C80.492 10.48 80.4974 10.1707 80.4974 9.872C80.508 9.56267 80.5134 9.26933 80.5134 8.992C80.524 8.71467 80.5294 8.47467 80.5294 8.272Z" fill="black"/>
</svg>
